<svg xmlns="http://www.w3.org/2000/svg" version="1.1" xmlns:xlink="http://www.w3.org/1999/xlink" xmlns:svgjs="http://svgjs.com/svgjs" width="46" height="46"><svg width="46" height="46" viewBox="0 0 46 46" fill="none" xmlns="http://www.w3.org/2000/svg">
<path d="M43.8412 20.4864L28.691 2.6681C27.2604 0.979971 25.1645 0 22.9471 0H22.9256C20.7225 0 18.6338 0.958512 17.1888 2.63233L1.83119 20.4721C0.65093 21.8455 0 23.598 0 25.4077V39.3777C0 42.7539 2.74678 45.5007 6.12303 45.5007H39.5207C42.897 45.5007 45.6438 42.7539 45.6438 39.3777V25.3863C45.6438 23.5908 45.0072 21.8526 43.8412 20.4864ZM29.5565 28.8126C28.3762 30.186 27.7253 31.9385 27.7253 33.7482V41.5594H17.5966V29.4492C17.5966 28.5908 17.9041 27.7539 18.4621 27.103L31.7382 12.3391L37.9113 19.5923L29.5923 28.7697L29.5565 28.8054V28.8126ZM3.9485 39.3777V25.4077C3.9485 24.5422 4.26323 23.6981 4.82833 23.0472L20.1788 5.20744C20.8655 4.40629 21.867 3.9485 22.9256 3.9485H22.9399C23.9986 3.9485 25 4.41345 25.6867 5.22175L29.1559 9.30615L15.5079 24.4778L15.4793 24.5064C14.299 25.8798 13.6481 27.6323 13.6481 29.4421V41.5522H6.12303C4.92132 41.5522 3.94134 40.5722 3.94134 39.3705L3.9485 39.3777ZM41.7024 39.3777C41.7024 40.5794 40.7225 41.5594 39.5207 41.5594H31.6667V33.7482C31.6667 32.8898 31.9742 32.0529 32.5322 31.402L40.4864 22.6252L40.8369 23.0401C41.3948 23.691 41.7024 24.5279 41.7024 25.3863V39.3777Z" fill="#F04C5C"></path>
</svg><style>@media (prefers-color-scheme: light) { :root { filter: none; } }
</style></svg>